<?xml version="1.0" encoding="UTF-8"?>
<svg id="Layer_1" data-name="Layer 1" xmlns="http://www.w3.org/2000/svg" version="1.1" viewBox="0 0 750 750">
  <defs>
    <style>
      .cls-1 {
        fill: #fff;
        stroke-width: 0px;
      }
    </style>
  </defs>
  <path class="cls-1" d="M633.2,33.4c-24.4-7.6-47.2,14.1-59.1,56.9-9.5,34.2-7.9,70.7-21.4,104-46.6,115.3-95.3,229.6-157.9,337.3-25,43-53.8,83.4-91.7,116.1-38.8,33.6-75.8,38.3-115.3,17.2-42.1-22.4-65.1-66.7-59.6-114.1,3-25.7,11.4-49.5,25.3-71.1,8.6-13.4,14-37.9,30.1-35.1,17.7,3.1,17.5,27.5,21,44.6,1.4,6.7-.4,16.2,13.4,16.6,3.4-62.7,19.9-123.3,38.3-195.2-37.7,37.3-67,66.7-96.7,95.5-33.9,33-53.5,73.3-62.5,119.4-14.9,75.9,12.3,143.3,70.6,173.5,67.2,34.8,124.1,22.2,183.2-41.7,48.8-52.7,81.4-115.9,115.2-178.6,63.7-118.2,98.1-250.3,175.2-362.5,25.7-37.4,17.2-75.1-8.1-83ZM609.4,123.2c-17.1,3.1-18.9-13.6-18.2-26.4,1-19.5,10.6-35.4,30.2-38.5,16.5-2.6,13.5,13.9,15.9,22.2-2,20.8-8.2,39.1-27.9,42.7Z"/>
</svg>