<?xml version="1.0" encoding="UTF-8"?>
<svg id="Layer_1" data-name="Layer 1" xmlns="http://www.w3.org/2000/svg" viewBox="0 0 1920 1080">
  <defs>
    <style>
      .cls-1 {
        fill: #fff;
        stroke-width: 0px;
      }
    </style>
  </defs>
  <path class="cls-1" d="M1041.92,453.15c-7.34-6.24-14.38-12.01-21.15-18.08-2.4-2.15-5.3-4.81-5.94-7.67-5.63-25.33-10.82-50.77-16.1-76.17-.11-.5.31-1.12,1.5-4.86,15.74,35.27,30.45,68.27,45.34,101.66,55.57-28.48,111.17-56.42,166.15-85.51,13.59-7.19,26.15-17.04,37.56-27.46,25.6-23.37,32.45-53.52,28.21-86.97-.94-7.45-1.41-14.97-2.27-24.17,52.68,40.42,76.67,99.21,113.15,151.9-5.04.29-7.57.83-10.01.53-20.38-2.31-38.7,3.69-55.92,13.85-44.99,26.54-89.91,53.24-134.86,79.84-4.71,2.79-9.52,5.39-14.29,8.09-.5-.83-1.01-1.67-1.5-2.49,63.22-38.06,126.44-76.12,191.96-115.57-10.29-3.39-19.42-6.03-28.28-9.39-11.98-4.53-22.08-1.36-32.74,4.92-69.79,41.03-139.87,81.54-209.77,122.37-16.6,9.7-32.67,20.32-49.37,29.82-15.96,9.06-21.92,22.63-23.59,40.42-6.82,72.69-15.59,145.21-21.57,217.96-3.37,41.01-2.84,82.37-3.8,123.56-.64,27.49-.72,55-1.17,82.52-.07,4.15-.75,8.27-2.66,12.33-2.64-23.86-4.75-47.8-8.05-71.59-9.96-71.92-15.99-144.51-36.26-214.68-3.3-11.43-6.97-22.8-11.32-33.86-9.79-24.87-17.66-49.91-17.08-77.2.33-15.11-6.93-27.8-21.33-33.6-18.03-7.26-36.65-13.26-55.32-18.69-4.71-1.38-10.97.61-15.96,2.51-24.89,9.5-49.61,19.5-74.41,29.31,21.83-26.85,44.35-54.56,67.53-83.1-6.58-3.83-13.3-7.74-19.99-11.65-44.06-25.73-88.18-51.34-132.15-77.25-21.44-12.64-44.51-17.85-70.78-16.67,2.7-5.34,4.75-10.18,7.46-14.64,17.9-29.51,35.99-58.91,53.9-88.42,12.6-20.74,31.33-35.43,50.66-52.97-.92,11.1-1.14,19.99-2.44,28.72-6.33,42.37,11.06,74.94,44.9,97.45,29.38,19.53,61.31,35.4,92.71,51.72,24.91,12.95,50.88,23.88,76.06,36.32,6.36,3.14,9.74,1.98,13.68-3.23,6.62-8.75,14.01-16.91,20.67-25.64,7.01-9.15,7.43-19.18,2.02-29.27-3.59-6.71-7.12-13.57-11.63-19.66-4.81-6.49-5.47-12.82-3.87-20.6,13.52-66.08,27.4-132.13,39.65-198.45,5.47-29.66,7.46-59.94,11.04-89.94.24-2.02.7-4.02,2.68-6.03.73,12.42,1.52,24.85,2.2,37.27,4.62,83.34,7.59,166.7,4.68,250.19-.24,6.97-1.3,13.04-5.36,19.48-7.78,12.34-13.57,25.95-20.12,39.07-10.34,20.71-18.12,43.32-31.64,61.68-16.07,21.83-38,38.7-64.69,47.63-2.82.94-5.61,1.94-10.88,3.78,12.23,4.57,22.1,8.42,32.1,11.96,24.21,8.58,39.91,23.46,38.74,51.37,4.86-15.59,5.92-31.97-6.29-43.41-10.86-10.18-25.53-16.27-37.89-23.77,10.53-3.14,21.94-8.36,35.43-.62,10.88,6.24,18.14,1.61,19.22-10.66.72-8.16-.73-16.53-1.19-24.34,8.16,14.16,16.89,29.27,26.32,45.63-6.64.7-11.99,1.27-18.96,2,16.23,18.16,12.91,39.67,15.22,59.46,7.68,66.03,14.18,132.18,22.41,198.34,1.82-30.74,3.65-61.5,5.41-92.24,3.03-52.79,5.91-105.57,9.13-158.34.26-4.33,2.29-8.82,4.48-12.69,9.76-17.24,19.88-34.26,30.35-52.18l.06.07ZM821.88,527.61c-.59-.88-1.17-1.78-1.78-2.66-8.62,5.45-17.26,10.89-25.88,16.34.51.81,1.03,1.61,1.54,2.42,8.71-5.37,17.41-10.73,26.12-16.1h0Z"/>
  <path class="cls-1" d="M1079.31,537.54c3.7,2.9,7.4,5.81,11.1,8.71-.24.41-.48.82-.73,1.22-.78-.25-1.59-.43-2.34-.75-13.01-5.46-25.91-11.21-39.08-16.25-3.62-1.38-8.39-1.73-12.06-.63-10.21,3.07-20.12,7.16-26.21,9.4,4.38-4.66,12.38-11.95,18.83-20.41,5.01-6.58,10-5.39,15.42-2.44,9.18,5,18.05,10.54,27.06,15.86,2.67,1.76,5.34,3.52,8.01,5.29h0Z"/>
  <path class="cls-1" d="M1027.72,513.02c-12.02,7.56-24.03,15.12-35.7,22.47,7.07-14.26,21.74-17.81,35.7-22.47Z"/>
  <path class="cls-1" d="M1079.31,537.54c-2.67-1.76-5.34-3.52-8.01-5.29-5.1-5.18-8.24-11.44-10.72-18.07.4-.31.8-.62,1.2-.93,1.52,1.76,3.1,3.48,4.55,5.3,4.75,5.97,9.45,11.98,14.13,18,.16.21-.08.8-.24,1.15-.03.07-.59-.1-.9-.16h-.01Z"/>
</svg>