<?xml version="1.0" encoding="UTF-8"?>
<svg id="Layer_1" data-name="Layer 1" xmlns="http://www.w3.org/2000/svg" viewBox="0 0 1920 1080">
  <defs>
    <style>
      .cls-1 {
        fill: #fff;
        stroke-width: 0px;
      }
    </style>
  </defs>
  <path class="cls-1" d="M963.03,675.69c-29.56-34.02-56.46-68.53-87.17-99.22-25.24-25.22-33.32-52.37-31.98-87.44,2.63-68.69.82-137.55.85-206.34,0-4.78,0-9.56,0-18.23,17.25,18.07,35.99,29.37,32.58,56.33-2.63,20.8-.64,42.2-.33,63.32.06,4.23.48,9.64,3.02,12.45,20.34,22.63,41.22,44.76,63.86,69.11.33-7.36.73-12.04.73-16.72.03-69.24.77-138.49-.44-207.71-.37-21.3,3.08-38.93,22.04-51.88,12.49,11.86,22.37,24.2,21.97,45.01-1.38,71.01-.55,142.06-.56,213.1,0,4.76,0,9.52,0,18.6,24.01-25.21,45.37-47.29,66.16-69.92,2.54-2.77,2.69-8.38,2.74-12.69.3-22.48.84-44.98,0-67.43-.46-12.25,2.7-21.66,12.08-29.6,6.7-5.67,12.51-12.38,21.4-21.31,0,8.48,0,13.64,0,18.8.14,81.38.34,162.75.29,244.13,0,4.64-.45,10.65-3.24,13.7-40.64,44.4-81.71,88.41-123.99,133.92ZM1056.94,460.7c-.95-.7-1.89-1.4-2.84-2.11-21.51,22.6-43.03,45.18-64.49,67.83-.87.91-1.64,2.37-1.65,3.58-.1,22.97-.07,45.94-.07,71.04,23.15-23,44.35-43.66,64.92-64.92,2.91-3,3.86-8.88,3.95-13.46.41-20.65.18-41.3.18-61.96ZM877.13,456.4c0,26.18-.08,47.68.1,69.18.02,2.94.37,6.94,2.23,8.65,22.17,20.51,44.66,40.67,65,59.06,0-16.88.07-38.7-.1-60.52-.02-2.51-.65-5.69-2.25-7.4-20.61-22.15-41.45-44.08-64.98-68.97Z"/>
  <path class="cls-1" d="M963.37,735.05c107.94-105.58,213.42-212.43,326.59-311.33-104.75,125.3-216.2,244.42-328.48,365.66-111.76-120.61-224.98-238.48-331.2-362.72,1.58-1.56,3.16-3.12,4.74-4.68,108.98,103.91,217.96,207.82,328.35,313.07Z"/>
  <path class="cls-1" d="M636.54,533.99c108.48,101.81,216.96,203.61,325.54,305.52,107.68-102.86,215.73-206.08,323.78-309.3,1.56,1.52,3.13,3.04,4.69,4.56-109.11,120.28-218.22,240.55-328.62,362.25-110.23-119.57-220.25-238.91-330.28-358.26,1.63-1.59,3.26-3.18,4.89-4.77Z"/>
</svg>