<?xml version="1.0" encoding="UTF-8"?>
<svg id="Layer_1" data-name="Layer 1" xmlns="http://www.w3.org/2000/svg" viewBox="0 0 800 800">
  <defs>
    <style>
      .cls-1 {
        fill: #fff;
        stroke-width: 0px;
      }
    </style>
  </defs>
  <path class="cls-1" d="M799.51,330.44c-10.88-62.46-198.55-81.95-419.2-43.54-92.66,16.14-176.33,39.95-241.49,66.73,10.01.22,17.43,2.51,21.94,7.01,3.53,3.53,5.31,8.38,5.31,14.41v6.2h-21.64v-5.47c0-4.56-2.73-7.38-7.57-7.38-4.07,0-6.57,1.84-7.38,5.45-.27,1.43-.24,2.9.09,4.32,2.32,9.46,34.44,15.34,37.94,32.8.46,2.25,1.08,7.06.1,13.94-2,14.09-14.38,19.52-30.13,19.52-21.99,0-30.92-10.42-30.92-24.78l.02-6.79h23.19v8.46c.01,4.76,3.47,7.38,8.18,7.38,4.46,0,7.07-1.8,7.97-5.47.42-1.69.6-4.18-.16-6.08-4.29-10.77-34.29-15.79-37.98-33.2-.82-3.91-.89-7.24-.21-11.46.35-2.09,1-4.11,1.92-6.02C37.19,400.28-5.09,437.47.49,469.58c10.89,62.47,198.56,81.94,419.2,43.53,96.99-16.88,184.19-42.16,250.55-70.48-.96.05-1.89.15-2.89.15-15.1,0-28.58-5.66-29.98-21.09-.25-2.81-.29-3.98-.3-5.59v-35.49c0-1.53.19-4.22.36-5.6,1.79-14.92,13.58-21.07,29.93-21.07,12.65,0,28.16,3.63,29.87,21.08.23,2.19.2,4.53.2,5.3v3.35h-21.85v-5c0-.11-.03-1.98-.27-3.14-.36-1.78-1.88-5.91-8.1-5.91s-7.74,4.14-8.14,5.91c-.23.98-.33,2.38-.33,3.93v38.57c-.02,1.34.05,2.39.18,3.16.11.61,1.21,5.92,8.37,5.92s8.2-5.32,8.3-5.92c.19-1.04.21-2.29.2-3.16v-11.95h-8.6v-12.87h30.41v22.9c0,1.56-.03,2.71-.29,5.58-.37,4.05-1.64,7.47-3.64,10.4,70.38-33.42,111.36-70.01,105.84-101.65ZM227.38,441.14l-11.07-75.21h-.4l-11.35,75.21h-23.33l15.69-84.94h38.06l15.6,84.94h-23.2ZM339.59,441.14l-.51-73.76h-.37l-13.73,73.76h-21.89l-13.66-73.76h-.39l-.5,73.76h-21.7l1.88-84.94h34.9l10.16,63.09h.5l10.19-63.09h34.88l1.87,84.94h-21.62ZM441.76,424.68c-2.33,16.45-18.45,19.33-29.84,19.33-18.91,0-30.61-8.08-30.61-24.54v-6.71h22.93l.02,8.36c0,4.54,3.2,7.32,8.14,7.32,4.41,0,6.99-1.77,7.89-5.4.41-1.69.59-4.16-.15-6.03-4.22-10.56-33.99-15.74-37.61-32.88-.83-3.88-.89-7.18-.21-11.35,2.52-15.54,17.43-18.76,29.43-18.76,10.73,0,18.55,2.34,23.23,7.03,3.49,3.5,5.26,8.3,5.26,14.27v6.13h-21.43v-5.41c0-4.63-2.87-7.31-7.49-7.31-4.1,0-6.57,1.82-7.39,5.4-.26,1.42-.23,2.87.1,4.27,2.3,9.42,34.14,15.18,37.63,32.48.45,2.21,1.07,6.95.1,13.8ZM521.12,416.96c.03,1.59-.12,4.78-.21,5.59-1.31,13.99-11.32,21.11-29.67,21.11s-28.45-7.11-29.74-21.11c-.15-1.86-.22-3.72-.21-5.58v-60.8h21.92v62.71c-.02,1.4.05,2.44.19,3.16.27,1.39,1.66,5.92,7.85,5.92s7.55-4.53,7.85-5.91c.12-.74.2-1.83.2-3.18v-62.71h21.84v60.78ZM615.57,440.27h-30.51l-20.48-67.28h-.34l1.14,67.28h-21.26v-84.07h31.78l18.93,64.63h.44l-1.12-64.63h21.42v84.07h0Z"/>
</svg>