<?xml version="1.0" encoding="UTF-8"?>
<svg id="Layer_1" data-name="Layer 1" xmlns="http://www.w3.org/2000/svg" viewBox="0 0 1920 1080">
  <defs>
    <style>
      .cls-1 {
        fill: #fff;
        stroke-width: 0px;
      }
    </style>
  </defs>
  <polygon class="cls-1" points="695.01 436.9 854.77 792.67 1014.53 436.9 695.01 436.9"/>
  <polygon class="cls-1" points="480.68 436.9 650.77 815.67 820.85 436.9 480.68 436.9"/>
  <polygon class="cls-1" points="276.99 436.9 449.77 821.67 622.55 436.9 276.99 436.9"/>
  <polygon class="cls-1" points="1291.68 436.9 1461.77 815.67 1631.85 436.9 1291.68 436.9"/>
  <polygon class="cls-1" points="1081.68 436.9 1251.77 815.67 1421.85 436.9 1081.68 436.9"/>
  <polygon class="cls-1" points="891.01 436.9 1050.77 792.67 1210.53 436.9 891.01 436.9"/>
  <polygon class="cls-1" points="87 436.9 268.77 841.67 450.53 436.9 87 436.9"/>
  <polygon class="cls-1" points="1470 436.9 1651.77 841.67 1833.53 436.9 1470 436.9"/>
</svg>