<?xml version="1.0" encoding="UTF-8"?>
<svg id="Layer_1" data-name="Layer 1" xmlns="http://www.w3.org/2000/svg" viewBox="0 0 800 800">
  <defs>
    <style>
      .cls-1 {
        fill: #fff;
        stroke-width: 0px;
      }
    </style>
  </defs>
  <path class="cls-1" d="M56.64,400c0,135.3,78.62,252.22,192.64,307.63L86.23,260.89c-19.55,43.77-29.63,91.17-29.59,139.11ZM629.2,382.75c0-42.24-15.18-71.5-28.19-94.27-17.33-28.16-33.57-52-33.57-80.16,0-31.42,23.83-60.67,57.4-60.67,1.52,0,2.95.19,4.43.28-60.81-55.72-141.83-89.73-230.82-89.73-119.42,0-224.48,61.27-285.59,154.07,8.02.24,15.58.41,22,.41,35.75,0,91.09-4.33,91.09-4.33,18.43-1.09,20.6,25.97,2.19,28.16,0,0-18.52,2.18-39.13,3.26l124.48,370.25,74.8-224.34-53.26-145.91c-18.41-1.08-35.84-3.26-35.84-3.26-18.42-1.08-16.26-29.24,2.16-28.16,0,0,56.45,4.34,90.03,4.34,35.75,0,91.1-4.34,91.1-4.34,18.44-1.09,20.61,25.98,2.19,28.16,0,0-18.56,2.18-39.13,3.26l123.53,367.44,34.09-113.93c14.77-47.28,26.02-81.23,26.02-110.5h0ZM404.45,429.9l-102.56,298.01c31.36,9.23,63.87,13.92,96.56,13.92,39.8,0,77.98-6.88,113.51-19.37-.95-1.49-1.76-3.07-2.43-4.71l-105.08-287.85h0ZM698.38,236.01c1.47,10.89,2.3,22.57,2.3,35.15,0,34.69-6.48,73.68-25.99,122.43l-104.41,301.87c101.62-59.26,169.97-169.35,169.97-295.45,0-59.43-15.18-115.31-41.87-164h0ZM398.45,1.56C178.75,1.56,0,180.3,0,400s178.75,398.46,398.45,398.46,398.47-178.73,398.47-398.46c0-219.7-178.77-398.44-398.47-398.44h0ZM398.45,780.2c-209.63,0-380.18-170.56-380.18-380.2S188.82,19.83,398.45,19.83s380.16,170.54,380.16,380.17-170.54,380.2-380.16,380.2Z"/>
</svg>